<?xml version="1.0" standalone="no"?><!DOCTYPE svg PUBLIC "-//W3C//DTD SVG 1.1//EN" "http://www.w3.org/Graphics/SVG/1.1/DTD/svg11.dtd"><svg t="1542091775776" class="icon" style="" viewBox="0 0 1024 1024" version="1.1" xmlns="http://www.w3.org/2000/svg" p-id="7121" xmlns:xlink="http://www.w3.org/1999/xlink" width="200" height="200"><defs><style type="text/css"></style></defs><path d="M66.175165 140.479475l0 743.04105 891.648646 0L957.823811 140.479475 66.175165 140.479475zM289.082978 275.568173c52.761668 0 95.53382 45.363164 95.53382 101.323687s-42.773176 101.323687-95.53382 101.323687c-52.759621 0-95.53382-45.363164-95.53382-101.323687S236.322333 275.568173 289.082978 275.568173zM193.555298 748.422617c0 0 20.910239-203.736171 127.379109-202.648396 106.463754 1.081635 127.371946 135.089721 127.371946 135.089721s57.3338-337.737094 191.071733-337.737094c133.73998 0 191.068663 405.294746 191.068663 405.294746L193.555298 748.421594z" p-id="7122" fill="#cdcdcd"></path></svg>